<svg xmlns="http://www.w3.org/2000/svg" width="424" height="600" viewBox="0 0 424 600">
  <g fill="none" fill-rule="evenodd">
    <path fill="#5EBB8A" fill-rule="nonzero" d="M424,388.389073 C424,451.145695 419.370846,522.049669 382.558049,558.822848 C345.965689,595.375828 275.205762,600 212.381529,600 C149.557295,600 78.5769329,595.375828 41.7641363,558.822848 C5.17177569,522.269868 0.763057538,451.586093 0.54262163,389.049669 C0.322185723,328.495033 -0.559557907,271.945364 0.54262163,211.831126 C1.42436526,168.011589 5.6126475,77.7301325 41.9845722,41.1771523 C78.7973688,4.62417219 149.557295,0 212.161093,0 C274.985327,0 346.186125,4.62417219 382.778485,41.397351 C419.370846,77.9503311 424,148.634106 424,211.390728 C424,271.725166 424,327.834437 424,388.389073 Z"/>
    <path fill="#4CB37C" fill-rule="nonzero" d="M212.086213,49.9992801 C259.251735,49.9528902 316.084535,47.7772053 344.502794,76.5393968 C373.408072,105.619641 371,163.438664 371,211.390728 L371,211.390728 L371,388.389073 C371,436.387229 373.382272,494.406315 344.389605,523.574156 C315.68133,552.455888 258.344791,550 210.878829,550 L209.448811,550.000684 C162.161833,550.044713 105.458916,552.102954 76.8196261,523.462514 C51.8459389,498.203293 50.5607854,451.17449 50.5386146,407.920558 L50.5388155,404.943823 C50.5418558,399.498586 50.5568451,394.123082 50.5384557,388.868944 C50.4824393,373.371344 50.3836162,358.135243 50.2856051,343.034546 C50.0030222,299.496655 49.722973,257.098536 50.5305283,212.743223 C51.1990305,178.91984 48.4170545,105.50708 77.2606922,76.3157667 C106.234241,47.6393707 163.407528,50 210.659953,50 L212.086213,49.9992801 Z"/>
  </g>
</svg>
