<svg xmlns="http://www.w3.org/2000/svg" width="422" height="407" viewBox="0 0 422 407">
  <g fill="none" fill-rule="evenodd" transform="translate(.464)">
    <g fill="#4CB37C" fill-rule="nonzero" transform="translate(22.536 23)">
      <path fill-opacity=".25" d="M337.145267,337.192687 C274.744294,399.602438 109.333713,399.602438 46.8367377,337.192687 C-15.6602374,274.782937 -15.5642359,109.349091 46.8367377,46.8433253 C109.237711,-15.6624401 274.648292,-15.5664251 337.145267,46.8433253 C399.642242,109.253076 399.594242,274.686922 337.145267,337.192687 Z"/>
      <path fill-opacity=".25" d="M191.889324,48 C234.651795,48 279.266714,56.8804479 303.227852,80.8081443 C327.157431,104.704326 336,149.245673 336,191.94917 C336,234.704119 327.124449,279.309495 303.188623,303.267079 C279.282821,327.163165 234.735811,336 192.027003,336 C149.28848,336 104.702785,327.143076 80.7541532,303.227868 C56.8308306,279.337935 48,234.811202 48,192.119699 C48,149.347161 56.8799438,104.722527 80.8063265,80.7559637 C104.690848,56.8313323 149.207881,48 191.889324,48 Z"/>
      <path d="M191.889324,96 C220.427497,96 252.648657,98.1344383 269.310436,114.772963 C285.92711,131.366446 288,163.504128 288,191.94917 C288,220.475243 285.873127,252.685204 269.230057,269.343364 C252.614903,285.922431 220.479682,288 192.027003,288 C163.514847,288 131.320346,285.88859 114.671569,269.263049 C98.0614016,252.676064 96,220.551712 96,192.119699 L96,191.262105 C96.044163,162.926312 98.3020305,131.170152 114.775915,114.668602 C131.356462,98.0602108 163.469422,96 191.889324,96 Z"/>
    </g>
    <rect width="8" height="2" x="376.536" y="129" fill="#FFF" transform="rotate(-45 380.536 130)"/>
    <rect width="8" height="2" x="59.536" y="192" fill="#FFF" transform="rotate(-45 63.536 193)"/>
    <rect width="8" height="2" x="51.536" y="122" fill="#FFF" transform="rotate(-45 55.536 123)"/>
    <rect width="8" height="2" x="3.536" y="236" fill="#FFF" transform="rotate(-45 7.536 237)"/>
    <rect width="8" height="2" x="10.536" y="173" fill="#4CB37C" transform="rotate(-45 14.536 174)"/>
    <rect width="8" height="2" x="377.536" y="199" fill="#FFF" transform="rotate(-45 381.536 200)"/>
    <rect width="8" height="2" x="409.536" y="232" fill="#4CB37C" transform="rotate(-45 413.536 233)"/>
    <rect width="8" height="2" x="346.536" y="58" fill="#FFF" transform="rotate(-45 350.536 59)"/>
    <rect width="8" height="2" x="292.536" y="57" fill="#FFF" transform="rotate(-45 296.536 58)"/>
    <rect width="8" height="2" x="319.536" y="222" fill="#FFF" transform="rotate(-45 323.536 223)"/>
    <rect width="8" height="2" x="89.536" y="222" fill="#FFF" transform="rotate(-45 93.536 223)"/>
    <rect width="8" height="2" x="49.536" y="262" fill="#FFF" transform="rotate(-45 53.536 263)"/>
    <rect width="8" height="2" x="-.464" y="282" fill="#FFF" transform="rotate(-45 3.536 283)"/>
    <rect width="8" height="2" x="49.536" y="62" fill="#4CB37C" transform="rotate(-45 53.536 63)"/>
    <rect width="8" height="2" x="169.536" y="53" fill="#4CB37C" transform="rotate(-45 173.536 54)"/>
    <rect width="8" height="2" x="317.536" y="133" fill="#4CB37C" transform="rotate(-45 321.536 134)"/>
    <rect width="8" height="2" x="129.536" y="12" fill="#4CB37C" transform="rotate(-45 133.536 13)"/>
    <rect width="8" height="2" x="289.536" y="12" fill="#4CB37C" transform="rotate(-45 293.536 13)"/>
    <rect width="8" height="2" x="259.536" y="102" fill="#FFF" transform="rotate(-45 263.536 103)"/>
    <rect width="8" height="2" x="369.536" y="262" fill="#FFF" transform="rotate(-45 373.536 263)"/>
    <rect width="8" height="2" x="389.536" y="42" fill="#FFF" transform="rotate(-45 393.536 43)"/>
    <rect width="8" height="2" x="389.536" y="42" fill="#4CB37C" transform="rotate(-45 393.536 43)"/>
    <polygon fill="#4CB37C" points="378.536 71 378.535 73.267 380.5 72.134 381.5 73.866 379.535 74.999 381.5 76.134 380.5 77.866 378.535 76.732 378.536 79 376.536 79 376.535 76.732 374.571 77.866 373.571 76.134 375.534 75 373.571 73.866 374.571 72.134 376.535 73.267 376.536 71"/>
    <polygon fill="#4CB37C" points="338.536 19 338.535 21.267 340.5 20.134 341.5 21.866 339.535 22.999 341.5 24.134 340.5 25.866 338.535 24.732 338.536 27 336.536 27 336.535 24.732 334.571 25.866 333.571 24.134 335.534 23 333.571 21.866 334.571 20.134 336.535 21.267 336.536 19"/>
    <polygon fill="#4CB37C" points="368.536 106 368.535 108.267 370.5 107.134 371.5 108.866 369.535 109.999 371.5 111.134 370.5 112.866 368.535 111.732 368.536 114 366.536 114 366.535 111.732 364.571 112.866 363.571 111.134 365.534 110 363.571 108.866 364.571 107.134 366.535 108.267 366.536 106"/>
    <polygon fill="#4CB37C" points="118.536 121 118.535 123.267 120.5 122.134 121.5 123.866 119.535 124.999 121.5 126.134 120.5 127.866 118.535 126.732 118.536 129 116.536 129 116.535 126.732 114.571 127.866 113.571 126.134 115.534 125 113.571 123.866 114.571 122.134 116.535 123.267 116.536 121"/>
    <polygon fill="#4CB37C" points="58.536 161 58.535 163.267 60.5 162.134 61.5 163.866 59.535 164.999 61.5 166.134 60.5 167.866 58.535 166.732 58.536 169 56.536 169 56.535 166.732 54.571 167.866 53.571 166.134 55.534 165 53.571 163.866 54.571 162.134 56.535 163.267 56.536 161"/>
    <polygon fill="#4CB37C" points="30.536 241 30.535 243.267 32.5 242.134 33.5 243.866 31.535 244.999 33.5 246.134 32.5 247.866 30.535 246.732 30.536 249 28.536 249 28.535 246.732 26.571 247.866 25.571 246.134 27.534 245 25.571 243.866 26.571 242.134 28.535 243.267 28.536 241"/>
    <polygon fill="#FFF" points="84.536 82 84.535 84.267 86.5 83.134 87.5 84.866 85.535 85.999 87.5 87.134 86.5 88.866 84.535 87.732 84.536 90 82.536 90 82.535 87.732 80.571 88.866 79.571 87.134 81.534 86 79.571 84.866 80.571 83.134 82.535 84.267 82.536 82"/>
    <polygon fill="#FFF" points="190.536 92 190.535 94.267 192.5 93.134 193.5 94.866 191.535 95.999 193.5 97.134 192.5 98.866 190.535 97.732 190.536 100 188.536 100 188.535 97.732 186.571 98.866 185.571 97.134 187.534 96 185.571 94.866 186.571 93.134 188.535 94.267 188.536 92"/>
    <polygon fill="#FFF" points="338.536 171 338.535 173.267 340.5 172.134 341.5 173.866 339.535 174.999 341.5 176.134 340.5 177.866 338.535 176.732 338.536 179 336.536 179 336.535 176.732 334.571 177.866 333.571 176.134 335.534 175 333.571 173.866 334.571 172.134 336.535 173.267 336.536 171"/>
    <polygon fill="#4CB37C" points="368.536 231 368.535 233.267 370.5 232.134 371.5 233.866 369.535 234.999 371.5 236.134 370.5 237.866 368.535 236.732 368.536 239 366.536 239 366.535 236.732 364.571 237.866 363.571 236.134 365.534 235 363.571 233.866 364.571 232.134 366.535 233.267 366.536 231"/>
    <polygon fill="#4CB37C" points="328.536 263 328.535 265.267 330.5 264.134 331.5 265.866 329.535 266.999 331.5 268.134 330.5 269.866 328.535 268.732 328.536 271 326.536 271 326.535 268.732 324.571 269.866 323.571 268.134 325.534 267 323.571 265.866 324.571 264.134 326.535 265.267 326.536 263"/>
    <polygon fill="#4CB37C" points="409.536 283 409.535 285.267 411.5 284.134 412.5 285.866 410.535 286.999 412.5 288.134 411.5 289.866 409.535 288.732 409.536 291 407.536 291 407.535 288.732 405.571 289.866 404.571 288.134 406.534 287 404.571 285.866 405.571 284.134 407.535 285.267 407.536 283"/>
    <polygon fill="#4CB37C" points="418.536 141 418.535 143.267 420.5 142.134 421.5 143.866 419.535 144.999 421.5 146.134 420.5 147.866 418.535 146.732 418.536 149 416.536 149 416.535 146.732 414.571 147.866 413.571 146.134 415.534 145 413.571 143.866 414.571 142.134 416.535 143.267 416.536 141"/>
    <polygon fill="#4CB37C" points="78.536 23 78.535 25.267 80.5 24.134 81.5 25.866 79.535 26.999 81.5 28.134 80.5 29.866 78.535 28.732 78.536 31 76.536 31 76.535 28.732 74.571 29.866 73.571 28.134 75.534 27 73.571 25.866 74.571 24.134 76.535 25.267 76.536 23"/>
    <polygon fill="#4CB37C" points="203.536 0 203.535 2.267 205.5 1.134 206.5 2.866 204.535 3.999 206.5 5.134 205.5 6.866 203.535 5.732 203.536 8 201.536 8 201.535 5.732 199.571 6.866 198.571 5.134 200.534 4 198.571 2.866 199.571 1.134 201.535 2.267 201.536 0"/>
    <polygon fill="#4CB37C" points="238.536 41 238.535 43.267 240.5 42.134 241.5 43.866 239.535 44.999 241.5 46.134 240.5 47.866 238.535 46.732 238.536 49 236.536 49 236.535 46.732 234.571 47.866 233.571 46.134 235.534 45 233.571 43.866 234.571 42.134 236.535 43.267 236.536 41"/>
    <polygon fill="#4CB37C" points="18.536 121 18.535 123.267 20.5 122.134 21.5 123.866 19.535 124.999 21.5 126.134 20.5 127.866 18.535 126.732 18.536 129 16.536 129 16.535 126.732 14.571 127.866 13.571 126.134 15.534 125 13.571 123.866 14.571 122.134 16.535 123.267 16.536 121"/>
  </g>
</svg>
