<svg xmlns="http://www.w3.org/2000/svg" width="384" height="384" viewBox="0 0 384 384">
  <g fill="none">
    <path fill="#FFF" fill-opacity=".12" d="M337.145267,337.192687 C274.744294,399.602438 109.333713,399.602438 46.8367377,337.192687 C-15.6602374,274.782937 -15.5642359,109.349091 46.8367377,46.8433253 C109.237711,-15.6624401 274.648292,-15.5664251 337.145267,46.8433253 C399.642242,109.253076 399.594242,274.686922 337.145267,337.192687 Z"/>
    <path fill="#FFF" fill-opacity=".12" d="M191.889324,48 C234.651795,48 279.266714,56.8804479 303.227852,80.8081443 C327.157431,104.704326 336,149.245673 336,191.94917 C336,234.704119 327.124449,279.309495 303.188623,303.267079 C279.282821,327.163165 234.735811,336 192.027003,336 C149.28848,336 104.702785,327.143076 80.7541532,303.227868 C56.8308306,279.337935 48,234.811202 48,192.119699 C48,149.347161 56.8799438,104.722527 80.8063265,80.7559637 C104.690848,56.8313323 149.207881,48 191.889324,48 Z"/>
    <path fill="#82CAA4" d="M191.889324,96 C220.427497,96 252.648657,98.1344383 269.310436,114.772963 C285.92711,131.366446 288,163.504128 288,191.94917 C288,220.475243 285.873127,252.685204 269.230057,269.343364 C252.614903,285.922431 220.479682,288 192.027003,288 C163.514847,288 131.320346,285.88859 114.671569,269.263049 C98.0614016,252.676064 96,220.551712 96,192.119699 L96,191.262105 C96.044163,162.926312 98.3020305,131.170152 114.775915,114.668602 C131.356462,98.0602108 163.469422,96 191.889324,96 Z"/>
  </g>
</svg>
