<svg xmlns="http://www.w3.org/2000/svg" width="40" height="40" viewBox="0 0 40 40">
  <path fill="#4CB37C" fill-rule="evenodd" d="M25,4 L24.9995935,11.339 L31.3564065,7.66987298 L36.3564065,16.330127 L30.0005935,20 L36.3564065,23.669873 L31.3564065,32.330127 L24.9995935,28.66 L25,36 L15,36 L14.9995935,28.66 L8.64359354,32.330127 L3.64359354,23.669873 L9.99859354,19.999 L3.64359354,16.330127 L8.64359354,7.66987298 L14.9995935,11.339 L15,4 L25,4 Z M20,12 C15.581722,12 12,15.581722 12,20 C12,24.418278 15.581722,28 20,28 C22.2147688,28 24.2193313,27.0999998 25.6679116,25.6457754 L25.8619666,25.4440693 L25.7834218,25.4134271 C27.4006076,26.0779664 29.249063,25.7414155 30.5266709,24.5678122 L30.6900121,24.41 L30.6400121,23.79 L30.414049,23.7631741 C29.2946432,23.5982192 28.335512,22.9753883 27.7222569,22.0973233 C27.9033637,21.4288967 28,20.7257336 28,20 C28,15.581722 24.418278,12 20,12 Z"/>
</svg>
