<svg xmlns="http://www.w3.org/2000/svg" width="115" height="32" viewBox="0 0 115 32">
  <path fill="#46A573" d="M10.73,17.54 C11.4665662,18.2387214 11.8579806,19.2264026 11.8,20.24 C11.8,22.67 9.8,24.11 7.07,24.11 C5.33808076,24.2315331 3.63842758,23.5968986 2.41,22.37 L3.74,21.06 C4.63061889,21.9429833 5.85899669,22.3986131 7.11,22.31 C8.83,22.31 9.82,21.57 9.82,20.31 C9.85666165,19.8009909 9.67058208,19.3011301 9.31,18.94 C8.90459544,18.593566 8.39302304,18.3959933 7.86,18.38 L6.31,18.15 C5.39024932,18.0585344 4.51922968,17.6927061 3.81,17.1 C3.13106838,16.442033 2.76695444,15.5244659 2.81,14.58 C2.81,12.29 4.48,10.88 7.21,10.88 C8.72221668,10.7921249 10.2031675,11.3352609 11.3,12.38 L10.06,13.63 C9.28218891,12.9218331 8.24961949,12.5607949 7.2,12.63 C5.64,12.63 4.79,13.35 4.79,14.52 C4.76817758,14.9805754 4.95122475,15.4272105 5.29,15.74 C5.7166062,16.0776937 6.22934135,16.2890237 6.77,16.35 L8.27,16.57 C9.17035086,16.6321713 10.0295167,16.9709481 10.73,17.54 Z M22.22,12.28 C23.51,13.58 23.4800593,14.88 23.4800593,17.41 C23.4800593,19.94 23.4800593,21.41 22.22,22.7 C21.3028768,23.6279916 20.0444178,24.1378844 18.74,24.11 C17.4418211,24.1359172 16.1902982,23.6259035 15.28,22.7 C14,21.41 14,20 14,17.41 C14,14.82 14,13.58 15.27,12.28 C16.1839846,11.3607607 17.4339508,10.8549941 18.73,10.88 C20.0357454,10.8502659 21.2967896,11.3561289 22.22,12.28 Z M21.48,17.41 C21.48,14.77 21.35,14.19 20.7,13.49 C20.1830706,12.9647533 19.4769533,12.6689635 18.74,12.6689635 C18.0030467,12.6689635 17.2969294,12.9647533 16.78,13.49 C16.13,14.19 16,14.77 16,17.41 C16,20.05 16.13,20.8 16.78,21.5 C17.8643275,22.5780041 19.6156725,22.5780041 20.7,21.5 C21.35,20.8 21.48,20.06 21.48,17.41 Z M30.69,10.93 C33.0631036,10.8248149 35.1144095,12.5706071 35.39,14.93 L35.39,14.93 L33.39,14.93 C33.1901528,13.6151061 32.0498424,12.6498996 30.72,12.67 L30.72,12.6697777 L30.5228666,12.6796606 C29.9348471,12.7305584 29.380557,12.9772321 28.9491346,13.3800125 L28.81,13.52 C28.16,14.22 28.02,14.81 28.02,17.46 C28.02,20.11 28.16,20.87 28.81,21.57 C29.5330734,22.2833222 30.5914181,22.5381274 31.5599167,22.2320651 C32.5284152,21.9260028 33.2481435,21.1092957 33.43,20.11 L33.43,20.11 L35.43,20.11 C35.1452362,22.4644763 33.099717,24.2053437 30.73,24.11 C29.4329188,24.1300394 28.1836215,23.6209326 27.27,22.7 C26,21.41 26,19.94 26,17.41 C26,14.88 26,13.58 27.23,12.33 C28.1472325,11.4156615 29.3950248,10.9107744 30.69,10.93 Z M40,11 L44,19 L48,11 L50,11 L50,24 L48,24 L48,15.19 L45,21.61 L43.11,21.61 L40,15.19 L40,24 L38,24 L38,11 L40,11 Z M53,24 L61.41,24 L61.41,22.2 L55,22.2 L55,18.25 L60.48,18.25 L60.48,16.47 L55,16.47 L55,12.78 L61.42,12.78 L61.42,11 L53,11 L53,24 Z M73.37,17.32 C73.37,19.23 73.46,21.32 72.04,22.76 C71.117026,23.6096287 69.8932436,24.0559493 68.64,24 L64,24 L64,11 L68.63,11 C69.8716062,10.9493944 71.0829041,11.3915001 72,12.23 C73.46,13.65 73.37,15.42 73.37,17.32 Z M71.37,17.32 C71.37,15.51 71.37,14.43 70.67,13.67 C70.0924999,13.0554811 69.2717709,12.7293879 68.43,12.78 L66,12.78 L66,22.2 L68.42,22.2 C69.2604113,22.2545807 70.0814686,21.9320225 70.66,21.32 C71.35,20.56 71.37,19.13 71.37,17.32 Z M76,24 L78,24 L78,11 L76,11 L76,24 Z M85.73,12.67 C87.0576419,12.6505528 88.1947327,13.6166525 88.39,14.93 L90.39,14.93 C90.1192724,12.572139 88.0710396,10.8252453 85.7,10.93 C84.4045968,10.9084793 83.1559441,11.4137145 82.24,12.33 C81,13.58 81,14.88 81,17.41 C81,19.94 81,21.41 82.28,22.7 C83.1923032,23.6229074 84.4424814,24.132373 85.74,24.11 C88.1076358,24.2048828 90.1500613,22.4629421 90.43,20.11 L88.43,20.11 C88.2442585,21.1091768 87.5225924,21.9244577 86.5533453,22.230095 C85.5840982,22.5357323 84.5253014,22.2818933 83.8,21.57 C83.16,20.87 83.01,20.11 83.01,17.46 C83.01,14.81 83.16,14.22 83.8,13.52 C84.2987426,12.982854 84.9970323,12.6753171 85.73,12.67 L85.73,12.67 Z M97.77,11 L102.6,24 L100.47,24 L99.56,21.35 L94.37,21.35 L93.46,24 L91.33,24 L96.16,11 L97.77,11 Z M99,19.65 L97,14 L95,19.65 L99,19.65 Z M106,22.2 L106,11 L104,11 L104,24 L112.34,24 L112.34,22.2 L106,22.2 Z" transform="translate(.5)"/>
</svg>
