<svg xmlns="http://www.w3.org/2000/svg" width="424" height="600" viewBox="0 0 424 600"><g fill="none"><path fill="#5EBB8A" d="M424 388.39c0 62.756-4.63 133.66-41.442 170.433C345.966 595.376 275.206 600 212.382 600c-62.825 0-133.805-4.624-170.618-41.177C5.172 522.27.764 451.586.543 389.05c-.22-60.555-1.103-117.105 0-177.219.881-43.82 5.07-134.1 41.442-170.654C78.797 4.624 149.557 0 212.16 0c62.824 0 134.025 4.624 170.617 41.397C419.371 77.95 424 148.634 424 211.391v176.998z"/><path fill="#4CB37C" d="M212.086 50c47.166-.047 103.999-2.223 132.417 26.54C373.408 105.62 371 163.438 371 211.39v177c0 47.997 2.382 106.016-26.61 135.184C315.68 552.456 258.345 550 210.879 550h-1.43c-47.287.045-103.99 2.103-132.63-26.537-24.973-25.26-26.258-72.289-26.28-115.542v-2.977c.003-5.445.018-10.82 0-16.075-.057-15.498-.155-30.734-.253-45.834-.283-43.538-.563-85.936.245-130.292.668-33.823-2.114-107.236 26.73-136.427C106.234 47.639 163.408 50 210.66 50h1.426z"/></g></svg>