<svg xmlns="http://www.w3.org/2000/svg" width="422" height="407" viewBox="0 0 422 407"><g fill="none" fill-rule="evenodd"><g fill="#4CB37C" fill-rule="nonzero"><path fill-opacity=".25" d="M360.145 360.193c-62.4 62.41-227.811 62.41-290.308 0-62.497-62.41-62.401-227.844 0-290.35 62.4-62.505 227.811-62.41 290.308 0 62.497 62.41 62.45 227.844 0 290.35z"/><path fill-opacity=".25" d="M214.89 71c42.762 0 87.377 8.88 111.338 32.808C350.158 127.704 359 172.246 359 214.95c0 42.755-8.876 87.36-32.811 111.318C302.283 350.163 257.736 359 215.027 359c-42.739 0-87.324-8.857-111.273-32.772C79.831 302.338 71 257.81 71 215.12c0-42.773 8.88-87.397 32.806-111.364C127.691 79.831 172.208 71 214.89 71z"/><path d="M214.89 119c28.537 0 60.759 2.134 77.42 18.773 16.617 16.593 18.69 48.731 18.69 77.176 0 28.526-2.127 60.736-18.77 77.394C275.615 308.923 243.48 311 215.027 311c-28.512 0-60.707-2.111-77.355-18.737C121.062 275.676 119 243.552 119 215.12v-.858c.044-28.336 2.302-60.092 18.776-76.593C154.356 121.06 186.469 119 214.889 119z"/></g><path fill="#FFF" d="M377.464 132.121l5.657-5.657 1.415 1.415-5.657 5.657zm-317 63l5.657-5.657 1.415 1.415-5.657 5.657zm-8-70l5.657-5.657 1.415 1.415-5.657 5.657zm-48 114l5.657-5.657 1.415 1.415-5.657 5.657z"/><path fill="#4CB37C" d="M11.464 176.121l5.657-5.657 1.415 1.415-5.657 5.657z"/><path fill="#FFF" d="M378.464 202.121l5.657-5.657 1.415 1.415-5.657 5.657z"/><path fill="#4CB37C" d="M410.464 235.121l5.657-5.657 1.415 1.415-5.657 5.657z"/><path fill="#FFF" d="M347.464 61.121l5.657-5.657 1.415 1.415-5.657 5.657zm-54-1l5.657-5.657 1.415 1.415-5.657 5.657zm27 165l5.657-5.657 1.415 1.415-5.657 5.657zm-230 0l5.657-5.657 1.415 1.415-5.657 5.657zm-40 40l5.657-5.657 1.415 1.415-5.657 5.657zm-50 20l5.657-5.657 1.415 1.415-5.657 5.657z"/><path fill="#4CB37C" d="M50.464 65.121l5.657-5.657 1.415 1.415-5.657 5.657zm120-9l5.657-5.657 1.415 1.415-5.657 5.657zm148 80l5.657-5.657 1.415 1.415-5.657 5.657zm-188-121l5.657-5.657 1.415 1.415-5.657 5.657zm160 0l5.657-5.657 1.415 1.415-5.657 5.657z"/><path fill="#FFF" d="M260.464 105.121l5.657-5.657 1.415 1.415-5.657 5.657zm110 160l5.657-5.657 1.415 1.415-5.657 5.657zm20-220l5.657-5.657 1.415 1.415-5.657 5.657z"/><path fill="#4CB37C" d="M390.464 45.121l5.657-5.657 1.415 1.415-5.657 5.657zM379 71l-.001 2.267 1.965-1.133 1 1.732-1.965 1.133 1.965 1.135-1 1.732-1.965-1.134L379 79h-2l-.001-2.268-1.964 1.134-1-1.732L375.998 75l-1.963-1.134 1-1.732 1.964 1.133L377 71zm-40-52l-.001 2.267 1.965-1.133 1 1.732-1.965 1.133 1.965 1.135-1 1.732-1.965-1.134L339 27h-2l-.001-2.268-1.964 1.134-1-1.732L335.998 23l-1.963-1.134 1-1.732 1.964 1.133L337 19zm30 87l-.001 2.267 1.965-1.133 1 1.732-1.965 1.133 1.965 1.135-1 1.732-1.965-1.134L369 114h-2l-.001-2.268-1.964 1.134-1-1.732 1.963-1.134-1.963-1.134 1-1.732 1.964 1.133L367 106zm-250 15l-.001 2.267 1.965-1.133 1 1.732-1.965 1.133 1.965 1.135-1 1.732-1.965-1.134L119 129h-2l-.001-2.268-1.964 1.134-1-1.732 1.963-1.134-1.963-1.134 1-1.732 1.964 1.133L117 121zm-60 40l-.001 2.267 1.965-1.133 1 1.732-1.965 1.133 1.965 1.135-1 1.732-1.965-1.134L59 169h-2l-.001-2.268-1.964 1.134-1-1.732L55.998 165l-1.963-1.134 1-1.732 1.964 1.133L57 161zm-28 80l-.001 2.267 1.965-1.133 1 1.732-1.965 1.133 1.965 1.135-1 1.732-1.965-1.134L31 249h-2l-.001-2.268-1.964 1.134-1-1.732L27.998 245l-1.963-1.134 1-1.732 1.964 1.133L29 241z"/><path fill="#FFF" d="M85 82l-.001 2.267 1.965-1.133 1 1.732-1.965 1.133 1.965 1.135-1 1.732-1.965-1.134L85 90h-2l-.001-2.268-1.964 1.134-1-1.732L81.998 86l-1.963-1.134 1-1.732 1.964 1.133L83 82zm106 10l-.001 2.267 1.965-1.133 1 1.732-1.965 1.133 1.965 1.135-1 1.732-1.965-1.134L191 100h-2l-.001-2.268-1.964 1.134-1-1.732L187.998 96l-1.963-1.134 1-1.732 1.964 1.133L189 92zm148 79l-.001 2.267 1.965-1.133 1 1.732-1.965 1.133 1.965 1.135-1 1.732-1.965-1.134L339 179h-2l-.001-2.268-1.964 1.134-1-1.732 1.963-1.134-1.963-1.134 1-1.732 1.964 1.133L337 171z"/><path fill="#4CB37C" d="M369 231l-.001 2.267 1.965-1.133 1 1.732-1.965 1.133 1.965 1.135-1 1.732-1.965-1.134L369 239h-2l-.001-2.268-1.964 1.134-1-1.732 1.963-1.134-1.963-1.134 1-1.732 1.964 1.133L367 231zm-40 32l-.001 2.267 1.965-1.133 1 1.732-1.965 1.133 1.965 1.135-1 1.732-1.965-1.134L329 271h-2l-.001-2.268-1.964 1.134-1-1.732 1.963-1.134-1.963-1.134 1-1.732 1.964 1.133L327 263zm81 20l-.001 2.267 1.965-1.133 1 1.732-1.965 1.133 1.965 1.135-1 1.732-1.965-1.134L410 291h-2l-.001-2.268-1.964 1.134-1-1.732 1.963-1.134-1.963-1.134 1-1.732 1.964 1.133L408 283zm9-142l-.001 2.267 1.965-1.133 1 1.732-1.965 1.133 1.965 1.135-1 1.732-1.965-1.134L419 149h-2l-.001-2.268-1.964 1.134-1-1.732 1.963-1.134-1.963-1.134 1-1.732 1.964 1.133L417 141zM79 23l-.001 2.267 1.965-1.133 1 1.732-1.965 1.133 1.965 1.135-1 1.732-1.965-1.134L79 31h-2l-.001-2.268-1.964 1.134-1-1.732L75.998 27l-1.963-1.134 1-1.732 1.964 1.133L77 23zM204 0l-.001 2.267 1.965-1.133 1 1.732-1.965 1.133 1.965 1.135-1 1.732-1.965-1.134L204 8h-2l-.001-2.268-1.964 1.134-1-1.732L200.998 4l-1.963-1.134 1-1.732 1.964 1.133L202 0zm35 41l-.001 2.267 1.965-1.133 1 1.732-1.965 1.133 1.965 1.135-1 1.732-1.965-1.134L239 49h-2l-.001-2.268-1.964 1.134-1-1.732L235.998 45l-1.963-1.134 1-1.732 1.964 1.133L237 41zM19 121l-.001 2.267 1.965-1.133 1 1.732-1.965 1.133 1.965 1.135-1 1.732-1.965-1.134L19 129h-2l-.001-2.268-1.964 1.134-1-1.732L15.998 125l-1.963-1.134 1-1.732 1.964 1.133L17 121z"/></g></svg>