<svg xmlns="http://www.w3.org/2000/svg" width="384" height="384" viewBox="0 0 384 384"><g fill="none"><path fill="#FFF" fill-opacity=".12" d="M337.145 337.193c-62.4 62.41-227.811 62.41-290.308 0-62.497-62.41-62.401-227.844 0-290.35 62.4-62.505 227.811-62.41 290.308 0 62.497 62.41 62.45 227.844 0 290.35z"/><path fill="#FFF" fill-opacity=".12" d="M191.89 48c42.762 0 87.377 8.88 111.338 32.808C327.158 104.704 336 149.246 336 191.95c0 42.755-8.876 87.36-32.811 111.318C279.283 327.163 234.736 336 192.027 336c-42.739 0-87.324-8.857-111.273-32.772C56.831 279.338 48 234.81 48 192.12c0-42.773 8.88-87.397 32.806-111.364C104.691 56.831 149.208 48 191.89 48z"/><path fill="#82CAA4" d="M191.89 96c28.537 0 60.759 2.134 77.42 18.773 16.617 16.593 18.69 48.731 18.69 77.176 0 28.526-2.127 60.736-18.77 77.394C252.615 285.923 220.48 288 192.027 288c-28.512 0-60.707-2.111-77.355-18.737C98.062 252.676 96 220.552 96 192.12v-.858c.044-28.336 2.302-60.092 18.776-76.593C131.356 98.06 163.469 96 191.889 96z"/></g></svg>