<svg xmlns="http://www.w3.org/2000/svg" width="32" height="32" viewBox="0 0 32 32">
  <g fill="none" fill-rule="evenodd">
    <path fill="#4CB37C" d="M20,0 L19.9995935,9.071 L27.8564065,4.53589838 L31.8564065,11.4641016 L23.9995935,15.999 L31.8564065,20.5358984 L27.8564065,27.4641016 L19.9995935,22.928 L20,32 L12,32 L11.9995935,22.928 L4.14359354,27.4641016 L0.143593539,20.5358984 L7.99959354,16 L0.143593539,11.4641016 L4.14359354,4.53589838 L11.9995935,9.071 L12,0 L20,0 Z"/>
    <path fill="#FFF" d="M16,9 C19.8659932,9 23,12.1340068 23,16 C23,16.6913451 22.899777,17.3592819 22.7130674,17.9900738 L24.8502464,21.2287326 L20.9062858,20.9928331 C19.6431178,22.2342404 17.9109853,23 16,23 C12.1340068,23 9,19.8659932 9,16 C9,12.1340068 12.1340068,9 16,9 Z"/>
  </g>
</svg>
