<svg xmlns="http://www.w3.org/2000/svg" xmlns:xlink="http://www.w3.org/1999/xlink"><symbol viewBox="0 0 24 24" id="icon-activity" xmlns="http://www.w3.org/2000/svg"><path stroke="var(--icon-stroke)" fill="none" stroke-linecap="round" stroke-linejoin="round" stroke-width="var(--icon-stroke-width)" d="M22 12h-4l-3 9L9 3l-3 9H2"/></symbol><symbol viewBox="0 0 24 24" id="icon-ambulance" xmlns="http://www.w3.org/2000/svg"><g stroke="var(--icon-stroke)" fill="none" fill-rule="evenodd" stroke-linecap="round" stroke-linejoin="round" stroke-width="var(--icon-stroke-width)" transform="translate(1 3)"><path d="M2 15.5a2.5 2.5 0 105 0"/><circle cx="17.5" cy="15.5" r="2.5"/><path fill="var(--icon-fill)" d="M19 6l3 3v5h-6V6z"/><path d="M0 0h16v14H0zM8 4v6M5 7h6"/></g></symbol><symbol viewBox="0 0 24 24" id="icon-arrow-right" xmlns="http://www.w3.org/2000/svg"><g stroke="var(--icon-stroke)" fill="none" fill-rule="evenodd" stroke-linecap="round" stroke-linejoin="round" stroke-width="var(--icon-stroke-width)"><path d="M12 20l8-8-8-8M4 12h16"/></g></symbol><symbol viewBox="0 0 24 24" id="icon-arrow-right-circle" xmlns="http://www.w3.org/2000/svg"><g stroke="var(--icon-stroke)" fill="none" fill-rule="evenodd" stroke-linecap="round" stroke-linejoin="round" stroke-width="var(--icon-stroke-width)" transform="translate(2 2)"><circle fill="var(--icon-fill)" cx="10" cy="10" r="10"/><path d="M10 14l4-4-4-4M6 10h8"/></g></symbol><symbol viewBox="0 0 24 24" id="icon-arrow-up-circle" xmlns="http://www.w3.org/2000/svg"><g stroke="var(--icon-stroke)" fill="none" fill-rule="evenodd" stroke-linecap="round" stroke-linejoin="round" stroke-width="var(--icon-stroke-width)" transform="translate(2 2)"><circle fill="var(--icon-fill)" cx="10" cy="10" r="10"/><path d="M14 10l-4-4-4 4M10 14V6"/></g></symbol><symbol viewBox="0 0 24 24" id="icon-bed" xmlns="http://www.w3.org/2000/svg"><g stroke="var(--icon-stroke)" fill="none" fill-rule="evenodd" stroke-linecap="round" stroke-linejoin="round" stroke-width="var(--icon-stroke-width)"><path d="M3 19.5v-12M21 19.5v-8M3 11h5a2 2 0 012 2v3h0-7v-5z"/><path fill="var(--icon-fill)" d="M3 14h18v4H3z"/><path d="M16 4v6m-3-3h6"/></g></symbol><symbol viewBox="0 0 24 24" id="icon-book" xmlns="http://www.w3.org/2000/svg"><g stroke="var(--icon-stroke)" fill="none" fill-rule="evenodd" stroke-linecap="round" stroke-linejoin="round" stroke-width="var(--icon-stroke-width)"><path d="M2 3h6a4 4 0 014 4v14a3 3 0 00-3-3H2V3z"/><path fill="var(--icon-fill)" d="M22 3h-6a4 4 0 00-4 4v14a3 3 0 013-3h7V3z"/></g></symbol><symbol viewBox="0 0 24 24" id="icon-building" xmlns="http://www.w3.org/2000/svg"><g stroke="var(--icon-stroke)" fill="none" fill-rule="evenodd" stroke-linecap="round" stroke-linejoin="round" stroke-width="var(--icon-stroke-width)"><path d="M3 4h8v16H3zM11 12h10v8H11zM10.5 8h-7m7 4h-7m7 4h-7M17 16h-2m3-12v4m-2-2h4"/></g></symbol><symbol viewBox="0 0 24 24" id="icon-calendar" xmlns="http://www.w3.org/2000/svg"><g stroke="var(--icon-stroke)" fill="none" fill-rule="evenodd" stroke-linecap="round" stroke-linejoin="round" stroke-width="var(--icon-stroke-width)"><path fill="var(--icon-fill)" d="M19 4a2 2 0 012 2v4H3V6a2 2 0 012-2h14z"/><path d="M21 10v10a2 2 0 01-2 2H5a2 2 0 01-2-2V10m13-8v4M8 2v4"/></g></symbol><symbol viewBox="0 0 24 24" id="icon-case" xmlns="http://www.w3.org/2000/svg"><g stroke="var(--icon-stroke)" fill="none" fill-rule="evenodd" stroke-linecap="round" stroke-linejoin="round" stroke-width="var(--icon-stroke-width)" transform="translate(2 3)"><rect fill="var(--icon-fill)" width="20" height="14" y="4" rx="2"/><path d="M14 4V2a2 2 0 00-2-2H8a2 2 0 00-2 2v2m4 4v6m-3-3h6"/></g></symbol><symbol viewBox="0 0 24 24" id="icon-check-mark" xmlns="http://www.w3.org/2000/svg"><g stroke="var(--icon-stroke)" fill="none" fill-rule="evenodd" stroke-linecap="round" stroke-linejoin="round" stroke-width="var(--icon-stroke-width)"><path d="M22 11.086v.92a10 10 0 11-5.93-9.14"/><path d="M22 4.006l-10 10.01-3-3"/></g></symbol><symbol viewBox="0 0 16 16" id="icon-chevron-down-sm" xmlns="http://www.w3.org/2000/svg"><path stroke="var(--icon-stroke)" fill="none" stroke-linecap="round" stroke-linejoin="round" stroke-width="var(--icon-stroke-width)" d="M4 6.5l4 4 4-4"/></symbol><symbol viewBox="0 0 24 24" id="icon-chevron-right" xmlns="http://www.w3.org/2000/svg"><path stroke="var(--icon-stroke)" fill="none" stroke-linecap="round" stroke-linejoin="round" stroke-width="var(--icon-stroke-width)" d="M9 18l6-6-6-6"/></symbol><symbol viewBox="0 0 24 24" id="icon-close" xmlns="http://www.w3.org/2000/svg"><path fill="none" stroke="var(--icon-stroke)" stroke-linecap="round" stroke-linejoin="round" stroke-width="var(--icon-stroke-width)" d="M18 6L6 18M6 6l12 12"/></symbol><symbol viewBox="0 0 24 24" id="icon-group" xmlns="http://www.w3.org/2000/svg"><g stroke="var(--icon-stroke)" fill="none" fill-rule="evenodd" stroke-linecap="round" stroke-linejoin="round" stroke-width="var(--icon-stroke-width)" transform="translate(1 3)"><path d="M22 18v-2a4 4 0 00-3-3.87m-4-12a4 4 0 010 7.75M16 18v-2a4 4 0 00-4-4H4a4 4 0 00-4 4v2"/><circle fill="var(--icon-fill)" cx="8" cy="4" r="4"/></g></symbol><symbol viewBox="0 0 24 24" id="icon-heart" xmlns="http://www.w3.org/2000/svg"><path fill="var(--icon-fill)" fill-rule="evenodd" stroke="var(--icon-stroke)" stroke-linecap="round" stroke-linejoin="round" stroke-width="var(--icon-stroke-width)" d="M20.791 4.612a5.5 5.5 0 00-7.78 0l-1.06 1.06-1.06-1.06a5.501 5.501 0 00-7.78 7.78l1.06 1.06 7.78 7.78 7.78-7.78 1.06-1.06a5.5 5.5 0 000-7.78z"/></symbol><symbol viewBox="0 0 16 16" id="icon-heart-sm" xmlns="http://www.w3.org/2000/svg"><path fill-rule="evenodd" d="M9.851 12.512L7.994 14l-1.858-1.488c-5.074-4.06-4.145-7.765-3.93-8.464a2.972 2.972 0 015.788.87 2.972 2.972 0 015.795-.87c.23.7 1.137 4.403-3.938 8.464z"/></symbol><symbol viewBox="0 0 24 24" id="icon-list" xmlns="http://www.w3.org/2000/svg"><path stroke="var(--icon-stroke)" fill="none" stroke-linecap="round" stroke-linejoin="round" stroke-width="var(--icon-stroke-width)" d="M8.495 6h13m-13 6h13m-13 6h13m-18-12h.01m-.01 6h.01m-.01 6h.01"/></symbol><symbol viewBox="0 0 24 24" id="icon-message" xmlns="http://www.w3.org/2000/svg"><path fill="var(--icon-fill)" stroke="var(--icon-stroke)" fill-rule="evenodd" stroke-linecap="round" stroke-linejoin="round" stroke-width="var(--icon-stroke-width)" d="M21 15a2 2 0 01-2 2H7l-4 4V5a2 2 0 012-2h14a2 2 0 012 2v10z"/></symbol><symbol viewBox="0 0 24 24" id="icon-notification" xmlns="http://www.w3.org/2000/svg"><g stroke="var(--icon-stroke)" fill="none" fill-rule="evenodd" stroke-linecap="round" stroke-linejoin="round" stroke-width="var(--icon-stroke-width)"><path fill="var(--icon-fill)" d="M18 8A6 6 0 106 8c0 7-3 9-3 9h18s-3-2-3-9"/><path d="M13.73 21a2 2 0 01-3.46 0"/></g></symbol><symbol viewBox="0 0 24 24" id="icon-nurse" xmlns="http://www.w3.org/2000/svg"><g stroke="var(--icon-stroke)" fill="none" fill-rule="evenodd" stroke-linecap="round" stroke-linejoin="round" stroke-width="var(--icon-stroke-width)"><path d="M4.535 21A3.998 3.998 0 018 19h8c1.48 0 2.773.804 3.465 2M12 3c2.184 0 4.164.875 5.608 2.294L16.105 11h-8.21L6.392 5.293A7.974 7.974 0 0112 3z"/><circle fill="var(--icon-fill)" cx="12" cy="11" r="4"/></g></symbol><symbol viewBox="0 0 24 24" id="icon-person" xmlns="http://www.w3.org/2000/svg"><g stroke="var(--icon-stroke)" fill="none" fill-rule="evenodd" stroke-linecap="round" stroke-linejoin="round" stroke-width="var(--icon-stroke-width)" transform="translate(4 3)"><path d="M16 18v-2a4 4 0 00-4-4H4a4 4 0 00-4 4v2"/><circle fill="var(--icon-fill)" cx="8" cy="4" r="4"/></g></symbol><symbol viewBox="0 0 24 24" id="icon-pills" xmlns="http://www.w3.org/2000/svg"><g stroke="var(--icon-stroke)" fill="none" fill-rule="evenodd" stroke-linecap="round" stroke-linejoin="round" stroke-width="var(--icon-stroke-width)"><circle cx="9" cy="15" r="6"/><path d="M5.11 11.11l7.78 7.78"/><circle fill="var(--icon-fill)" cx="15" cy="9" r="6"/><path d="M9.5 9h11"/></g></symbol><symbol viewBox="0 0 24 24" id="icon-search" xmlns="http://www.w3.org/2000/svg"><g stroke="var(--icon-stroke)" fill="none" fill-rule="evenodd" stroke-linecap="round" stroke-linejoin="round" stroke-width="var(--icon-stroke-width)" transform="translate(3 3)"><circle fill="var(--icon-fill)" cx="8" cy="8" r="8"/><path d="M18 18l-4.35-4.35"/></g></symbol><symbol viewBox="0 0 24 24" id="icon-stethoscope" xmlns="http://www.w3.org/2000/svg"><g stroke="var(--icon-stroke)" fill="none" fill-rule="evenodd" stroke-linecap="round" stroke-linejoin="round" stroke-width="var(--icon-stroke-width)"><path d="M16 11.1h0V16a5 5 0 01-10 0v-3.947h0M18 3h2v4a4 4 0 11-8 0V3h2"/><circle fill="var(--icon-fill)" cx="6" cy="12" r="2"/></g></symbol><symbol viewBox="0 0 24 24" id="icon-syringe" xmlns="http://www.w3.org/2000/svg"><path stroke="var(--icon-stroke)" fill="none" stroke-linecap="round" stroke-linejoin="round" stroke-width="var(--icon-stroke-width)" d="M14.475 8.61l1.414 1.415a2 2 0 010 2.828l-7.07 7.072h0l-4.244-4.243 7.072-7.071a2 2 0 012.828 0zm2.121-.706l3.536-3.536m-4.95 2.829l2.121 2.121M4.575 19.925l2.122-2.122M3.16 19.217l2.122 2.122m4.242-5.657l1.414 1.414m1.415-4.243l1.414 1.415"/></symbol><symbol viewBox="0 0 24 24" id="icon-test-tubes" xmlns="http://www.w3.org/2000/svg"><g fill="none" fill-rule="evenodd"><path fill="var(--icon-fill)" d="M4 11h6v7a3 3 0 01-6 0v-7z"/><path stroke="var(--icon-stroke)" stroke-linecap="round" stroke-linejoin="round" stroke-width="var(--icon-stroke-width)" d="M4 3h6v15a3 3 0 01-6 0V3z"/><path fill="var(--icon-fill)" d="M14 15h6v3a3 3 0 01-6 0v-3z"/><path stroke="var(--icon-stroke)" stroke-linecap="round" stroke-linejoin="round" stroke-width="var(--icon-stroke-width)" d="M14 3h6v15a3 3 0 01-6 0V3zM3 3h8m2 0h8"/></g></symbol></svg>