<svg xmlns="http://www.w3.org/2000/svg" width="115" height="32" viewBox="0 0 115 32"><path fill="#46A573" d="M11.23 17.54a3.45 3.45 0 011.07 2.7c0 2.43-2 3.87-4.73 3.87a6 6 0 01-4.66-1.74l1.33-1.31a4.35 4.35 0 003.37 1.25c1.72 0 2.71-.74 2.71-2a1.76 1.76 0 00-.51-1.37 2.34 2.34 0 00-1.45-.56l-1.55-.23a4.61 4.61 0 01-2.5-1.05 3.3 3.3 0 01-1-2.52c0-2.29 1.67-3.7 4.4-3.7a5.47 5.47 0 014.09 1.5l-1.24 1.25a3.87 3.87 0 00-2.86-1c-1.56 0-2.41.72-2.41 1.89-.022.46.161.907.5 1.22.427.338.94.549 1.48.61l1.5.22c.9.062 1.76.4 2.46.97zm11.49-5.26c1.29 1.3 1.26 2.6 1.26 5.13s0 4-1.26 5.29a4.75 4.75 0 01-3.48 1.41 4.72 4.72 0 01-3.46-1.41c-1.28-1.29-1.28-2.7-1.28-5.29s0-3.83 1.27-5.13a4.75 4.75 0 013.46-1.4 4.78 4.78 0 013.49 1.4zm-.74 5.13c0-2.64-.13-3.22-.78-3.92a2.75 2.75 0 00-3.92 0c-.65.7-.78 1.28-.78 3.92 0 2.64.13 3.39.78 4.09a2.78 2.78 0 003.92 0c.65-.7.78-1.44.78-4.09zm9.21-6.48a4.53 4.53 0 014.7 4h-2a2.66 2.66 0 00-2.67-2.26l-.197.01a2.64 2.64 0 00-1.574.7l-.139.14c-.65.7-.79 1.29-.79 3.94s.14 3.41.79 4.11a2.74 2.74 0 004.62-1.46h2a4.55 4.55 0 01-4.7 4 4.77 4.77 0 01-3.46-1.41c-1.27-1.29-1.27-2.76-1.27-5.29 0-2.53 0-3.83 1.23-5.08a4.8 4.8 0 013.46-1.4zm9.31.07l4 8 4-8h2v13h-2v-8.81l-3 6.42h-1.89l-3.11-6.42V24h-2V11h2zm13 13h8.41v-1.8H55.5v-3.95h5.48v-1.78H55.5v-3.69h6.42V11H53.5v13zm20.37-6.68c0 1.91.09 4-1.33 5.44a4.71 4.71 0 01-3.4 1.24H64.5V11h4.63a4.71 4.71 0 013.37 1.23c1.46 1.42 1.37 3.19 1.37 5.09zm-2 0c0-1.81 0-2.89-.7-3.65a2.84 2.84 0 00-2.24-.89H66.5v9.42h2.42a2.83 2.83 0 002.24-.88c.69-.76.71-2.19.71-4zM76.5 24h2V11h-2v13zm9.73-11.33a2.65 2.65 0 012.66 2.26h2a4.52 4.52 0 00-4.69-4 4.78 4.78 0 00-3.46 1.4c-1.24 1.25-1.24 2.55-1.24 5.08 0 2.53 0 4 1.28 5.29a4.75 4.75 0 003.46 1.41 4.54 4.54 0 004.69-4h-2a2.75 2.75 0 01-4.63 1.46c-.64-.7-.79-1.46-.79-4.11 0-2.65.15-3.24.79-3.94a2.66 2.66 0 011.93-.85zM98.27 11l4.83 13h-2.13l-.91-2.65h-5.19L93.96 24h-2.13l4.83-13h1.61zm1.23 8.65l-2-5.65-2 5.65h4zm7 2.55V11h-2v13h8.34v-1.8h-6.34z"/></svg>