<svg xmlns="http://www.w3.org/2000/svg" width="24" height="24" viewBox="0 0 24 24">
  <g fill="none" fill-rule="evenodd">
    <rect width="20" height="16" x="2" y="4" fill="#009"/>
    <polygon fill="#FFF" points="22 4 21.999 5.894 14.423 11.863 21.999 17.832 22 20 19.901 19.999 11.999 13.773 4.097 19.999 2 20 1.999 17.832 9.575 11.863 1.999 5.894 2 4 4.442 3.999 11.999 9.953 19.557 3.999"/>
    <path fill="red" fill-rule="nonzero" d="M11.9242181,13.0006428 L3.17321807,19.9998609 L2,20 L1.99921807,19.6606428 L10.3242181,13.0006428 L11.9242181,13.0006428 Z M15.058,13 L21.9992181,18.6068609 L21.9992181,19.8918609 L13.467,13 L15.058,13 Z M21.9628609,3.99986086 L12.058,11.9998609 L10.3242181,11.9992181 L1.99921807,5.33921807 L1.99921807,4.06021807 L11.1922181,11.4138609 L20.3718609,3.99986086 L21.9628609,3.99986086 Z"/>
    <polygon fill="#FFF" points="14 4 14 10 22 10 22 14 14 14 14 20 10 20 10 14 2 14 2 10 10 10 10 4"/>
    <polygon fill="red" points="13 4 13 11 22 11 22 13 13 13 13 20 11 20 11 13 2 13 2 11 11 11 11 4"/>
    <rect width="19" height="15" x="2.5" y="4.5" stroke="#000" stroke-opacity=".12"/>
  </g>
</svg>
