<svg xmlns="http://www.w3.org/2000/svg" width="24" height="24" viewBox="0 0 24 24">
  <g fill="none" fill-rule="evenodd">
    <rect width="8" height="16" x="2" y="4" fill="#390"/>
    <rect width="12" height="16" x="10" y="4" fill="red"/>
    <path fill="#E6E600" d="M10,8 C12.209139,8 14,9.790861 14,12 C14,14.209139 12.209139,16 10,16 C7.790861,16 6,14.209139 6,12 C6,9.790861 7.790861,8 10,8 Z M10,9 C8.34314575,9 7,10.3431458 7,12 C7,13.6568542 8.34314575,15 10,15 C11.6568542,15 13,13.6568542 13,12 C13,10.3431458 11.6568542,9 10,9 Z"/>
    <polygon fill="#E6E600" points="10.5 8.5 10.5 10.792 12.121 9.172 12.828 9.879 11.206 11.5 13.5 11.5 13.5 12.5 11.207 12.5 12.828 14.121 12.121 14.828 10.5 13.207 10.5 15.5 9.5 15.5 9.5 13.206 7.879 14.828 7.172 14.121 8.792 12.5 6.5 12.5 6.5 11.5 8.793 11.5 7.172 9.879 7.879 9.172 9.5 10.793 9.5 8.5"/>
    <path fill="red" d="M8,10 L12,10 L12,13 C12,14.1045695 11.1045695,15 10,15 C8.8954305,15 8,14.1045695 8,13 L8,10 L8,10 Z"/>
    <path fill="#FFF" d="M11,11 L11,13 C11,13.2761424 10.8880712,13.5261424 10.7071068,13.7071068 C10.5261424,13.8880712 10.2761424,14 10,14 C9.72385763,14 9.47385763,13.8880712 9.29289322,13.7071068 C9.11192881,13.5261424 9,13.2761424 9,13 L9,13 L9,11 L11,11 Z"/>
    <rect width="19" height="15" x="2.5" y="4.5" stroke="#000" stroke-opacity=".12"/>
  </g>
</svg>
