<svg xmlns="http://www.w3.org/2000/svg" width="24" height="24" viewBox="0 0 24 24">
  <path fill="var(--icon-fill)" stroke="var(--icon-stroke)" stroke-width="var(--icon-stroke-width)" d="M4 7L7 3H17L20 7H4Z" stroke-linecap="round" stroke-linejoin="round"/>
  <path fill="none" stroke="var(--icon-stroke)" stroke-width="var(--icon-stroke-width)" d="M4 7V19C4 19.5304 4.21071 20.0391 4.58579 20.4142C4.96086 20.7893 5.46957 21 6 21H18C18.5304 21 19.0391 20.7893 19.4142 20.4142C19.7893 20.0391 20 19.5304 20 19V7M16 11C16 12.0609 15.5786 13.0783 14.8284 13.8284C14.0783 14.5786 13.0609 15 12 15C10.9391 15 9.92172 14.5786 9.17157 13.8284C8.42143 13.0783 8 12.0609 8 11" stroke-linecap="round" stroke-linejoin="round"/>
</svg>
