<svg xmlns="http://www.w3.org/2000/svg" width="24" height="24" viewBox="0 0 24 24">
  <g fill="none" fill-rule="evenodd">
    <rect width="20" height="16" x="2" y="4" fill="red"/>
    <path fill="#FFF" d="M9,8 C9.96026284,8 10.8302042,8.44195691 11.4625847,9.15759726 C11.1601535,9.05541788 10.8365485,9 10.5,9 C8.84314575,9 7.5,10.3431458 7.5,12 C7.5,13.6568542 8.84314575,15 10.5,15 C10.8365485,15 11.1601535,14.9445821 11.4621873,14.842374 C10.8302042,15.5580431 9.96026284,16 9,16 C7.06700338,16 5.5,14.209139 5.5,12 C5.5,9.790861 7.06700338,8 9,8 Z"/>
    <polygon fill="#FFF" points="13.353 13.018 12.178 13.636 12.402 12.327 11.451 11.4 12.766 11.209 13.353 10.018 13.941 11.209 15.255 11.4 14.304 12.327 14.529 13.636" transform="rotate(-18 13.353 12.018)"/>
    <rect width="19" height="15" x="2.5" y="4.5" stroke="#000" stroke-opacity=".12"/>
  </g>
</svg>
