<svg xmlns="http://www.w3.org/2000/svg" width="24" height="24" viewBox="0 0 24 24">
  <g fill="none" fill-rule="evenodd">
    <rect width="18" height="8" x="4" y="4" fill="red"/>
    <rect width="18" height="8" x="4" y="12" fill="#009" transform="matrix(1 0 0 -1 0 32)"/>
    <polygon fill="#FFF" points="6.677 4 12.926 8.999 21.999 9 21.999 15 12.927 14.999 6.677 20 2 20 2 4"/>
    <polygon fill="#FFD500" points="2 6.66 8.673 11.999 2 17.338"/>
    <polygon fill="#000" points="1.999 7.941 7.072 11.999 1.999 16.058"/>
    <path fill="#00994D" d="M5.0756099,3.99926238 L12.5756099,9.99926238 L22,10 L22,14 L12.5766099,13.9992624 L5.0766099,19.9992624 L2,20 L1.9996099,17.3382624 L8.6726099,11.9992624 L1.9996099,6.66126238 L2,4 L5.0756099,3.99926238 Z"/>
    <rect width="19" height="15" x="2.5" y="4.5" stroke="#000" stroke-opacity=".12"/>
  </g>
</svg>
