<svg xmlns="http://www.w3.org/2000/svg" width="24" height="24" viewBox="0 0 24 24">
  <g fill="none" fill-rule="evenodd">
    <rect width="20" height="16" x="2" y="4" fill="red"/>
    <polygon fill="#FFD500" points="5.5 9.25 4.031 10.023 4.311 8.386 3.122 7.227 4.765 6.989 5.5 5.5 6.235 6.989 7.878 7.227 6.689 8.386 6.969 10.023"/>
    <polygon fill="#FFD500" points="8.668 6.082 8.08 6.391 8.193 5.736 7.717 5.273 8.374 5.177 8.668 4.582 8.962 5.177 9.619 5.273 9.144 5.736 9.256 6.391" transform="rotate(30 8.668 5.582)"/>
    <polygon fill="#FFD500" points="9.974 7.72 9.386 8.029 9.498 7.374 9.023 6.911 9.68 6.815 9.974 6.22 10.268 6.815 10.925 6.911 10.45 7.374 10.562 8.029" transform="rotate(-16 9.974 7.22)"/>
    <polygon fill="#FFD500" points="9.905 10.068 9.317 10.377 9.43 9.722 8.954 9.259 9.611 9.163 9.905 8.568 10.199 9.163 10.856 9.259 10.381 9.722 10.493 10.377" transform="rotate(7 9.905 9.568)"/>
    <polygon fill="#FFD500" points="8.668 11.871 8.08 12.18 8.193 11.525 7.717 11.062 8.374 10.966 8.668 10.371 8.962 10.966 9.619 11.062 9.144 11.525 9.256 12.18" transform="rotate(23 8.668 11.37)"/>
    <rect width="19" height="15" x="2.5" y="4.5" stroke="#000" stroke-opacity=".12"/>
  </g>
</svg>
